<?xml version="1.0" standalone="no"?><!DOCTYPE svg PUBLIC "-//W3C//DTD SVG 1.1//EN" "http://www.w3.org/Graphics/SVG/1.1/DTD/svg11.dtd"><svg t="1647915156930" class="icon" viewBox="0 0 1024 1024" version="1.1" xmlns="http://www.w3.org/2000/svg" p-id="1326" xmlns:xlink="http://www.w3.org/1999/xlink" width="128" height="128"><defs><style type="text/css"></style></defs><path d="M908.394212 788.553261a31.10103 31.10103 0 0 1-30.077596-22.003837 29.907024 29.907024 0 0 1 13.645791-34.114476l53.730299-32.124464a29.395306 29.395306 0 0 0 13.816362-34.114476 31.612747 31.612747 0 0 0-14.839796-18.194387 517.971455 517.971455 0 0 1-62.884351-40.141366 30.020739 30.020739 0 0 1-12.053781-20.070683 29.395306 29.395306 0 0 1 6.311178-22.401839 31.10103 31.10103 0 0 1 20.696115-11.371492 31.840177 31.840177 0 0 1 23.084129 6.083748 468.562322 468.562322 0 0 0 55.549738 35.36534 89.607356 89.607356 0 0 1 3.12716 156.699158l-53.730299 32.067607a30.930458 30.930458 0 0 1-16.431806 4.548597M497.314781 1023.715713a95.861676 95.861676 0 0 1-46.168257-11.371492L48.42514 792.476426a90.005358 90.005358 0 0 1-3.12716-156.642301l56.857459-34.114476a32.238179 32.238179 0 0 1 23.766418-3.866307 31.32846 31.32846 0 0 1 19.502108 13.702648 29.452164 29.452164 0 0 1 3.695735 22.742984 30.248168 30.248168 0 0 1-14.10065 18.762961l-56.857459 34.114476a31.953892 31.953892 0 0 0-10.97349 10.859775 30.077596 30.077596 0 0 0 11.996924 41.449087l402.721385 219.867796a31.953892 31.953892 0 0 0 31.840177-0.739147L625.81264 891.692692a32.124465 32.124465 0 0 1 43.041096 9.836341 29.736451 29.736451 0 0 1-9.893198 41.676517L546.780771 1010.467925a97.681115 97.681115 0 0 1-49.295417 13.361503M526.710088 60.550351a31.385318 31.385318 0 0 0-16.431806 4.548597l-432.116691 258.24658a27.97387 27.97387 0 0 0-10.97349 10.859775 29.565879 29.565879 0 0 0-2.89973 23.140986 30.475598 30.475598 0 0 0 14.896654 18.308102l402.721385 219.867795a32.408752 32.408752 0 0 0 31.840177-0.796004l432.116691-258.24658a34.114476 34.114476 0 0 0 10.97349-10.859775 28.42873 28.42873 0 0 0 2.842873-22.742984 31.271603 31.271603 0 0 0-14.839797-18.478674L542.118459 64.587231a32.920469 32.920469 0 0 0-15.408371-3.80945M497.314781 659.827973a95.861676 95.861676 0 0 1-46.168257-11.371492L48.42514 428.588686A89.323069 89.323069 0 0 1 45.29798 271.889528L477.414671 13.642947A96.657681 96.657681 0 0 1 572.878345 11.652936l402.721384 219.810938a89.323069 89.323069 0 0 1 3.127161 156.699158l-432.116691 258.530868a97.681115 97.681115 0 0 1-49.295418 13.361503m0 178.646137a95.975391 95.975391 0 0 1-46.168257-11.826352L48.42514 607.007393a88.811352 88.811352 0 0 1-3.411448-156.414871l54.753734-32.863611a31.953892 31.953892 0 0 1 43.154811 10.006913 29.850166 29.850166 0 0 1-10.2912 41.790232l-54.753733 32.579325a29.338449 29.338449 0 0 0-10.689203 10.916632 28.42873 28.42873 0 0 0-2.842873 22.742984 29.907024 29.907024 0 0 0 14.839797 18.194387l402.721385 219.867795a31.953892 31.953892 0 0 0 31.840177-0.511717l432.116691-258.246581a29.907024 29.907024 0 0 0 13.816363-34.114475 30.361883 30.361883 0 0 0-14.839797-18.194387l-56.061455-30.589313a29.850166 29.850166 0 0 1-11.712637-41.221658 30.646171 30.646171 0 0 1 18.706104-14.498653 31.55589 31.55589 0 0 1 23.766419 2.899731l56.061454 30.589313a88.811352 88.811352 0 0 1 3.127161 156.642301l-432.116691 258.24658a95.520532 95.520532 0 0 1-49.295418 13.64579m341.144756-406.303404a31.32846 31.32846 0 0 1-15.635801-4.03688l-490.850446-272.915805a30.646171 30.646171 0 0 1-14.612367-18.421817A29.509021 29.509021 0 0 1 320.260653 113.996363a31.214745 31.214745 0 0 1 18.990391-14.157507 32.01075 32.01075 0 0 1 23.766418 3.013445l490.850447 272.915805a29.963881 29.963881 0 0 1 14.612367 34.114476 31.157888 31.157888 0 0 1-30.248168 22.742983M489.013592 539.745019A30.418741 30.418741 0 0 1 472.297499 534.741562l-53.218582-32.124464a30.248168 30.248168 0 0 1-13.816362-18.990392 29.509021 29.509021 0 0 1 4.150594-22.742983 31.897035 31.897035 0 0 1 43.041097-9.608911l52.934295 32.295037a30.077596 30.077596 0 0 1 9.893198 41.960805 31.78332 31.78332 0 0 1-26.609291 14.157507m299.695668 196.101378v159.200886H728.156066a18.308102 18.308102 0 0 0-13.588932 5.685746 17.796385 17.796385 0 0 0-5.287744 12.9635 18.023815 18.023815 0 0 0 5.685746 12.792929l108.029173 97.283113 114.226635-107.631171a12.451784 12.451784 0 0 0 3.923165-8.869764 11.371492 11.371492 0 0 0-3.58202-8.642333 12.338069 12.338069 0 0 0-8.926621-3.468305H851.536753v-159.200887a31.442175 31.442175 0 0 0-62.88435 0z m0 0" p-id="1327"></path></svg>