<?xml version="1.0" standalone="no"?><!DOCTYPE svg PUBLIC "-//W3C//DTD SVG 1.1//EN" "http://www.w3.org/Graphics/SVG/1.1/DTD/svg11.dtd"><svg t="1647915149534" class="icon" viewBox="0 0 1024 1024" version="1.1" xmlns="http://www.w3.org/2000/svg" p-id="1026" xmlns:xlink="http://www.w3.org/1999/xlink" width="128" height="128"><defs><style type="text/css"></style></defs><path d="M727.584 435.843c-153.355 0-278.126 124.77-278.126 278.125s124.77 278.124 278.126 278.124 278.122-124.768 278.122-278.124S880.94 435.843 727.584 435.843z m0 521.486c-134.19 0-243.36-109.167-243.36-243.36 0-134.19 109.17-243.36 243.36-243.36s243.36 109.17 243.36 243.36c0 134.193-109.17 243.36-243.36 243.36z m104.298-260.744h-86.914v-86.913c0-9.61-7.776-17.385-17.384-17.385-9.61 0-17.382 7.78-17.382 17.385v86.913h-86.916c-9.61 0-17.383 7.776-17.383 17.383 0 9.591 7.774 17.384 17.383 17.384h86.916v86.915c0 9.59 7.773 17.38 17.382 17.38 9.61 0 17.384-7.79 17.384-17.38v-86.915h86.91c9.61 0 17.384-7.793 17.384-17.384 0.002-9.609-7.77-17.383-17.38-17.383z m0 0M290.71 431.793c-8.849 0-16.031 7.162-16.031 16.035v16.036c0 8.848 7.161 16.03 16.031 16.03h204.143a327.045 327.045 0 0 1 63.864-48.1H290.71z m-64.106 160.303v22.338c0 20.414 14.363 36.939 32.065 36.939h142.71a323.33 323.33 0 0 1 17.63-59.279H226.604z" p-id="1027"></path><path d="M226.604 111.192c0-17.722 14.363-32.066 32.065-32.066h480.905c17.701 0 32.066 14.344 32.066 32.066v281.203a323.627 323.627 0 0 1 48.095 11.303V79.126c0-26.571-21.545-48.096-48.097-48.096H226.604c-26.552 0-48.097 21.525-48.097 48.096v512.97h48.097V111.192z" p-id="1028"></path><path d="M338.81 351.632h320.621c8.854 0 16.016-7.157 16.016-16.032v-16.034c0-8.869-7.162-16.03-16.016-16.03h-320.62c-8.854 0-16.036 7.161-16.036 16.03V335.6c0 8.875 7.182 16.032 16.036 16.032z m32.062-128.233h272.53c8.849 0 16.03-7.162 16.03-16.035v-16.031c0-8.874-7.183-16.035-16.03-16.035h-272.53a16.008 16.008 0 0 0-16.031 16.035v16.03a16.008 16.008 0 0 0 16.03 16.036z m519.512 769.444h41.558c26.545 0 48.096-17.934 48.096-40.08v-40.576c-24.579 32.117-54.98 59.539-89.654 80.656zM395.276 714.346c0-8.77 0.356-17.457 1.037-26.053H226.604c-26.571 0-48.097-24.798-48.097-55.368v-40.828H66.3c-26.55-0.001-48.096 17.933-48.096 40.06v320.606c0 22.142 21.525 40.081 48.096 40.081h485.571c-93.893-57.187-156.595-160.52-156.595-278.498z" p-id="1029"></path><path d="M226.604 688.293h169.709a325.679 325.679 0 0 1 5.065-36.92h-142.71c-17.7 0-32.064-16.524-32.064-36.938v-22.338h-48.097v40.828c0 30.57 21.526 55.368 48.097 55.368z" p-id="1030"></path></svg>